
<?xml-stylesheet href="css/stylesheet.css" type="text/css"?>
<svg class="crocodoc-tx92cs crocodoc-page-svg" version="1.1"
    xmlns="http://www.w3.org/2000/svg"
    xmlns:xlink="http://www.w3.org/1999/xlink"
    xml:space="preserve" width="373pt" height="498pt" viewBox="0 0 373 498">
<defs>

</defs>
<path d="M52.25 191.22 c0 5.01 -4.11 9.07 -9.18 9.07 c-5.07 0 -9.18 -4.06 -9.18 -9.07 c0 -5.01 4.11 -9.07 9.18 -9.07 c5.07 0 9.18 4.06 9.18 9.07 " style="fill:#a4a6a8;"/><path d="M227.12 421.71 c0 5.01 -4.11 9.07 -9.18 9.07 c-5.07 0 -9.18 -4.06 -9.18 -9.07 c0 -5.01 4.11 -9.07 9.18 -9.07 c5.07 0 9.18 4.06 9.18 9.07 " style="fill:#a4a6a8;"/><text class="f21" font-size="11.60" style="fill:#f6862a"><tspan x="22.60" y="210.24" textLength="42.33" dx="0,-1.45,0,-0.41,0,0,0,0,0">Travaasa </tspan>
<tspan x="28.66" y="224.16" textLength="30.21">Austin</tspan></text><path d="M82.39 148.33 l51.18 -18.39 l49.62 7.08 l61.44 -13.04 l34.24 17.31 " style="stroke:#7dd4e2;stroke-width:4.00;stroke-linecap:round;stroke-linejoin:round;"/><path d="M200.4 302.74 l99.29 -24.08 l36.02 -1.64 " style="stroke:#7dd4e2;stroke-width:8.00;stroke-linecap:round;stroke-linejoin:round;"/><path d="M233.04 469.23 l66.65 -143.64 l-17.95 -46.65 l-2.86 -137.67 l2.84 -106.88 " style="stroke:#7dd4e2;stroke-width:4.00;stroke-linecap:round;stroke-linejoin:round;"/><path d="M308.15 287.27 c0 0 -1.39 -2.89 -2.59 -2.79 c-1.2 0.1 -5.79 0.78 -8.46 -2.39 c-1.64 -1.94 0.4 -5.87 1 -6.97 c0.6 -1.09 -1 -3.78 -1 -3.78 l3.29 -2.89 c0 0 2.89 2.19 4.58 2.19 c1.69 0 3.19 -2.19 3.19 -2.19 c0 0 1.49 2.19 3.19 2.19 c1.69 0 4.58 -2.19 4.58 -2.19 l3.29 2.89 c0 0 -1.59 2.69 -1 3.78 c0.6 1.1 2.63 5.03 1 6.97 c-2.68 3.17 -7.27 2.49 -8.47 2.39 c-1.19 -0.1 -2.59 2.69 -2.59 2.69 z " style="fill:#ffffff;"/><path d="M308.15 287.27 c0 0 -1.39 -2.89 -2.59 -2.79 c-1.2 0.1 -5.79 0.78 -8.46 -2.39 c-1.64 -1.94 0.4 -5.87 1 -6.97 c0.6 -1.09 -1 -3.78 -1 -3.78 l3.29 -2.89 c0 0 2.89 2.19 4.58 2.19 c1.69 0 3.19 -2.19 3.19 -2.19 c0 0 1.49 2.19 3.19 2.19 c1.69 0 4.58 -2.19 4.58 -2.19 l3.29 2.89 c0 0 -1.59 2.69 -1 3.78 c0.6 1.1 2.63 5.03 1 6.97 c-2.68 3.17 -7.27 2.49 -8.47 2.39 c-1.19 -0.1 -2.59 2.69 -2.59 2.69 z " style="stroke:#211d1d;stroke-width:1.01;stroke-linecap:round;stroke-linejoin:round;"/><text class="f21" font-size="10.56" style="fill:#211d1d"><tspan x="299.10" y="281.64" textLength="17.77" font-size="12.47" dx="0,-0.94,0">290</tspan>
<tspan x="294.25" y="254.13" textLength="52.63" class="f20">Houston  </tspan></text><text class="f20" font-size="10.56" style="fill:#211d1d"><tspan x="166.80" y="25.36" textLength="33.58" dx="0,-0.31,0,0,0">Waco </tspan></text><text class="f20" font-size="10.56" style="fill:#211d1d"><tspan x="72.23" y="482.80" textLength="69.56" dx="0,0,0.15,0,0,0,0,0,0,0,0,0">San Antonio </tspan></text><path d="M143.1 481.53 l-3.48 -6.95 l1.03 0.01 l2.87 5.9 l3.01 -5.85 l1.03 0.01 l-3.6 6.88 l-0.85 -0.01 z " style="fill:#211d1d;"/><path d="M204.56 16.59 l-3.28 7.52 l1.03 -0.04 l2.69 -6.38 l3.18 6.17 l1.03 -0.04 l-3.8 -7.26 l-0.85 0.03 z " style="fill:#211d1d;"/><path d="M314.28 467.7 l-3.35 0 l-6.47 -6.94 l0 6.94 l-3.72 0 l0 -12.47 l3.34 0 l6.45 6.91 l0 -6.91 l3.75 0 l0 12.47 z " style="fill:#cac1ad;"/><text class="f20" font-size="14.91" style="fill:#211d1d"><tspan x="90.26" y="359.93" textLength="50.36" dx="0,0.21,0,0,0,0">Austin</tspan></text><path d="M182.02 35.27 l20.41 97.66 l1.82 99.68 l-96.58 233.99 " style="stroke:#7dd4e2;stroke-width:8.00;"/><path d="M204.26 98.22 l-22.05 0 c0 0 0.1 -1.06 0.93 -2.38 c0.61 -0.97 0.64 -0.91 1.29 -1.69 c0 0 1.1 1.68 4.37 1.71 c2.87 0.02 4.55 -2.3 4.55 -2.3 c0 0 1.09 2.28 4.36 2.33 c3.27 0.05 4.16 -1.63 4.16 -1.63 c0 0 1.21 1.18 1.49 1.63 c0.62 1.04 0.89 2.33 0.89 2.33 " style="fill:#bf1c2d;"/><path d="M182.14 99.01 l22.23 0 c0 0 0.86 3.36 -0.59 8.13 c-2.09 6.85 -10.31 10.11 -10.31 10.11 c0 0 -7.89 -3.05 -10.41 -10.71 c-1.51 -4.59 -0.91 -7.54 -0.91 -7.54 " style="fill:#2d3992;"/><text class="f21" font-size="15.22" style="fill:#ffffff"><tspan x="185.60" y="111.25" textLength="15.22">35</tspan></text><path d="M155.19 372.75 l30.41 11.44 " style="stroke:#70cfc7;stroke-width:4.00;stroke-linecap:round;stroke-linejoin:round;"/><path d="M191.01 468.34 l-3.65 -57.52 " style="stroke:#7dd4e2;stroke-width:4.00;stroke-linecap:round;stroke-linejoin:round;"/><path d="M87.7 145.48 l-22.41 -111.88 " style="stroke:#7dd4e2;stroke-width:4.00;stroke-linecap:round;stroke-linejoin:round;"/><path d="M217.94 421.94 l-30.58 -11.12 l-1.77 -26.64 l18.66 -10.27 l11.27 -53.14 l-76.9 -82.9 l-4.13 -38.48 l-40.96 -28.1 l-5.82 -24.67 l-26.73 9.63 l-17.92 34.96 " style="stroke:#f6862a;stroke-width:8.00;stroke-linecap:round;stroke-linejoin:round;"/><path d="M135.04 443.47 c0 0 -1.4 -2.89 -2.59 -2.79 c-1.19 0.1 -5.79 0.78 -8.47 -2.39 c-1.64 -1.94 0.4 -5.88 1 -6.97 c0.6 -1.1 -1 -3.78 -1 -3.78 l3.29 -2.89 c0 0 2.89 2.19 4.58 2.19 c1.69 0 3.19 -2.19 3.19 -2.19 c0 0 1.49 2.19 3.19 2.19 c1.69 0 4.58 -2.19 4.58 -2.19 l3.29 2.89 c0 0 -1.59 2.69 -1 3.78 c0.6 1.1 2.63 5.03 1 6.97 c-2.68 3.17 -7.27 2.49 -8.47 2.39 c-1.19 -0.1 -2.59 2.69 -2.59 2.69 z " style="fill:#ffffff;"/><path d="M135.04 443.47 c0 0 -1.4 -2.89 -2.59 -2.79 c-1.19 0.1 -5.79 0.78 -8.47 -2.39 c-1.64 -1.94 0.4 -5.88 1 -6.97 c0.6 -1.1 -1 -3.78 -1 -3.78 l3.29 -2.89 c0 0 2.89 2.19 4.58 2.19 c1.69 0 3.19 -2.19 3.19 -2.19 c0 0 1.49 2.19 3.19 2.19 c1.69 0 4.58 -2.19 4.58 -2.19 l3.29 2.89 c0 0 -1.59 2.69 -1 3.78 c0.6 1.1 2.63 5.03 1 6.97 c-2.68 3.17 -7.27 2.49 -8.47 2.39 c-1.19 -0.1 -2.59 2.69 -2.59 2.69 z " style="stroke:#211d1d;stroke-width:1.01;stroke-linecap:round;stroke-linejoin:round;"/><text class="f21" font-size="12.47" style="fill:#211d1d"><tspan x="125.99" y="437.84" textLength="17.77" dx="0,-0.94,0">290</tspan></text><path d="M116.47 426.87 l-22.05 0 c0 0 0.1 -1.06 0.93 -2.38 c0.61 -0.97 0.65 -0.91 1.29 -1.68 c0 0 1.1 1.68 4.37 1.71 c2.87 0.03 4.55 -2.3 4.55 -2.3 c0 0 1.09 2.28 4.36 2.33 c3.27 0.05 4.16 -1.63 4.16 -1.63 c0 0 1.21 1.17 1.49 1.63 c0.62 1.04 0.89 2.33 0.89 2.33 " style="fill:#bf1c2d;"/><path d="M94.36 427.66 l22.23 0 c0 0 0.86 3.36 -0.59 8.13 c-2.09 6.85 -10.31 10.11 -10.31 10.11 c0 0 -7.89 -3.05 -10.41 -10.71 c-1.51 -4.59 -0.91 -7.54 -0.91 -7.54 " style="fill:#2d3992;"/><text class="f21" font-size="15.22" style="fill:#ffffff"><tspan x="97.81" y="439.90" textLength="15.22">35</tspan></text><path d="M205.24 370.04 c0 0 -1.4 -2.89 -2.59 -2.79 c-1.19 0.1 -5.79 0.78 -8.46 -2.39 c-1.64 -1.94 0.4 -5.88 1 -6.97 c0.6 -1.1 -1 -3.79 -1 -3.79 l3.29 -2.89 c0 0 2.89 2.19 4.58 2.19 c1.69 0 3.19 -2.19 3.19 -2.19 c0 0 1.49 2.19 3.19 2.19 c1.69 0 4.58 -2.19 4.58 -2.19 l3.29 2.89 c0 0 -1.59 2.69 -1 3.79 c0.6 1.09 2.63 5.03 1 6.97 c-2.68 3.17 -7.27 2.49 -8.47 2.39 c-1.19 -0.1 -2.59 2.69 -2.59 2.69 z " style="fill:#ffffff;"/><path d="M205.24 370.04 c0 0 -1.4 -2.89 -2.59 -2.79 c-1.19 0.1 -5.79 0.78 -8.46 -2.39 c-1.64 -1.94 0.4 -5.88 1 -6.97 c0.6 -1.1 -1 -3.79 -1 -3.79 l3.29 -2.89 c0 0 2.89 2.19 4.58 2.19 c1.69 0 3.19 -2.19 3.19 -2.19 c0 0 1.49 2.19 3.19 2.19 c1.69 0 4.58 -2.19 4.58 -2.19 l3.29 2.89 c0 0 -1.59 2.69 -1 3.79 c0.6 1.09 2.63 5.03 1 6.97 c-2.68 3.17 -7.27 2.49 -8.47 2.39 c-1.19 -0.1 -2.59 2.69 -2.59 2.69 z " style="stroke:#211d1d;stroke-width:1.01;stroke-linecap:round;stroke-linejoin:round;"/><text class="f21" font-size="12.47" style="fill:#211d1d"><tspan x="196.19" y="364.41" textLength="17.46" dx="0,-1.25,0">183</tspan></text><path d="M352.02 248.82 l-7.34 -3.66 l-0.02 1.03 l6.23 3.02 l-6.32 2.85 l-0.02 1.03 l7.45 -3.41 l0.01 -0.85 z " style="fill:#211d1d;"/><path d="M210.83 435.67 l-1.16 2.18 l-0.48 7.95 l-12.23 6.56 l0.06 1.27 l12.02 -2.48 l0.74 5.51 l-2.43 2.39 l0.23 1.83 l3.47 -1.31 l-0.22 -23.91 z " style="fill:#211d1d;"/><path d="M210.7 435.68 l1.19 2.17 l0.58 7.94 l12.32 6.41 l-0.05 1.27 l-12.04 -2.32 l-0.66 5.52 l2.45 2.36 l-0.21 1.83 l-3.49 -1.26 l-0.09 -23.91 z " style="fill:#211d1d;"/><path d="M213.62 421.78 c0 2.81 -3.88 5.1 -8.67 5.1 l-1.39 0 c-4.78 0 -8.67 -2.28 -8.67 -5.1 l0 -13.93 c0 -2.81 3.88 -5.09 8.67 -5.09 l1.39 0 c4.79 0 8.67 2.28 8.67 5.09 l0 13.93 z " style="fill:#ffffff;"/><path d="M213.62 421.78 c0 2.81 -3.88 5.1 -8.67 5.1 l-1.39 0 c-4.78 0 -8.67 -2.28 -8.67 -5.1 l0 -13.93 c0 -2.81 3.88 -5.09 8.67 -5.09 l1.39 0 c4.79 0 8.67 2.28 8.67 5.09 l0 13.93 z " style="stroke:#211d1d;stroke-width:0.66;"/><text class="f21" font-size="10.57" style="fill:#211d1d"><tspan x="196.12" y="417.86" textLength="13.5"> 71</tspan></text><path d="M288.84 182.2 c0 2.81 -3.88 5.1 -8.67 5.1 l-1.39 0 c-4.78 0 -8.67 -2.28 -8.67 -5.1 l0 -13.93 c0 -2.81 3.88 -5.09 8.67 -5.09 l1.39 0 c4.79 0 8.67 2.28 8.67 5.09 l0 13.93 z " style="fill:#ffffff;"/><path d="M288.84 182.2 c0 2.81 -3.88 5.1 -8.67 5.1 l-1.39 0 c-4.78 0 -8.67 -2.28 -8.67 -5.1 l0 -13.93 c0 -2.81 3.88 -5.09 8.67 -5.09 l1.39 0 c4.79 0 8.67 2.28 8.67 5.09 l0 13.93 z " style="stroke:#211d1d;stroke-width:0.66;"/><text class="f21" font-size="10.57" style="fill:#211d1d"><tspan x="271.34" y="178.29" textLength="13.5"> 45</tspan></text><path d="M275.73 401.5 c0 2.81 -3.88 5.1 -8.67 5.1 l-1.39 0 c-4.78 0 -8.67 -2.28 -8.67 -5.1 l0 -13.93 c0 -2.81 3.88 -5.1 8.67 -5.1 l1.39 0 c4.79 0 8.67 2.28 8.67 5.1 l0 13.93 z " style="fill:#ffffff;"/><path d="M275.73 401.5 c0 2.81 -3.88 5.1 -8.67 5.1 l-1.39 0 c-4.78 0 -8.67 -2.28 -8.67 -5.1 l0 -13.93 c0 -2.81 3.88 -5.1 8.67 -5.1 l1.39 0 c4.79 0 8.67 2.28 8.67 5.1 l0 13.93 z " style="stroke:#211d1d;stroke-width:0.66;"/><text class="f21" font-size="10.57" style="fill:#211d1d"><tspan x="258.22" y="397.58" textLength="13.5"> 45</tspan></text><path d="M118.89 143 c0 2.81 -3.88 5.1 -8.67 5.1 l-1.39 0 c-4.78 0 -8.67 -2.28 -8.67 -5.1 l0 -13.93 c0 -2.81 3.88 -5.09 8.67 -5.09 l1.39 0 c4.78 0 8.67 2.28 8.67 5.09 l0 13.93 z " style="fill:#ffffff;"/><path d="M118.89 143 c0 2.81 -3.88 5.1 -8.67 5.1 l-1.39 0 c-4.78 0 -8.67 -2.28 -8.67 -5.1 l0 -13.93 c0 -2.81 3.88 -5.09 8.67 -5.09 l1.39 0 c4.78 0 8.67 2.28 8.67 5.09 l0 13.93 z " style="stroke:#211d1d;stroke-width:0.66;"/><text class="f21" font-size="10.57" style="fill:#211d1d"><tspan x="101.39" y="139.08" textLength="13.5"> 45</tspan></text><path d="M72.97 164.11 c0 2.81 -3.88 5.1 -8.67 5.1 l-1.39 0 c-4.78 0 -8.67 -2.28 -8.67 -5.1 l0 -13.93 c0 -2.81 3.88 -5.09 8.67 -5.09 l1.39 0 c4.79 0 8.67 2.28 8.67 5.09 l0 13.93 z " style="fill:#ffffff;"/><path d="M72.97 164.11 c0 2.81 -3.88 5.1 -8.67 5.1 l-1.39 0 c-4.78 0 -8.67 -2.28 -8.67 -5.1 l0 -13.93 c0 -2.81 3.88 -5.09 8.67 -5.09 l1.39 0 c4.79 0 8.67 2.28 8.67 5.09 l0 13.93 z " style="stroke:#211d1d;stroke-width:0.66;"/><text class="f21" font-size="10.57" style="fill:#211d1d"><tspan x="52.99" y="160.19" textLength="18.26" dx="0,0,-0.53,0"> 620</tspan></text><path d="M306.46 442.99 l-7.53 8.3 l2.14 -0.01 l6.2 -7.05 l6.02 7.01 l2.14 0 l-7.21 -8.25 l-1.77 0.01 z " style="fill:#cac1ad;"/><path d="M34.28 186.67 c0 0 -11.37 -26 -11.68 -31.37 c-0.34 -5.92 -0.63 -15.6 11.2 -15.63 c10.88 -0.02 11.5 9.71 11.5 14.57 c0 3.7 -11.02 32.43 -11.02 32.43 " style="fill:#cce214;"/><path d="M40.18 151.97 c0 3.35 -2.81 6.06 -6.28 6.06 c-3.47 0 -6.28 -2.71 -6.28 -6.06 c0 -3.35 2.81 -6.06 6.28 -6.06 c3.47 0 6.28 2.72 6.28 6.06 " style="fill:#ffffff;"/><path d="M156.98 368.95 c0 5.01 -4.11 9.07 -9.18 9.07 c-5.07 0 -9.18 -4.06 -9.18 -9.07 c0 -5.01 4.11 -9.07 9.18 -9.07 c5.07 0 9.18 4.06 9.18 9.07 " style="fill:#a4a6a8;"/><path d="M117.13 199.72 c0 0 -1.39 -2.89 -2.59 -2.79 c-1.19 0.1 -5.79 0.78 -8.46 -2.39 c-1.64 -1.94 0.4 -5.88 0.99 -6.97 c0.6 -1.1 -0.99 -3.78 -0.99 -3.78 l3.28 -2.89 c0 0 2.89 2.19 4.58 2.19 c1.69 0 3.19 -2.19 3.19 -2.19 c0 0 1.49 2.19 3.19 2.19 c1.69 0 4.58 -2.19 4.58 -2.19 l3.29 2.89 c0 0 -1.59 2.69 -0.99 3.78 c0.59 1.1 2.63 5.03 0.99 6.97 c-2.68 3.17 -7.27 2.49 -8.47 2.39 c-1.19 -0.1 -2.59 2.69 -2.59 2.69 z " style="fill:#ffffff;"/><path d="M117.13 199.72 c0 0 -1.39 -2.89 -2.59 -2.79 c-1.19 0.1 -5.79 0.78 -8.46 -2.39 c-1.64 -1.94 0.4 -5.88 0.99 -6.97 c0.6 -1.1 -0.99 -3.78 -0.99 -3.78 l3.28 -2.89 c0 0 2.89 2.19 4.58 2.19 c1.69 0 3.19 -2.19 3.19 -2.19 c0 0 1.49 2.19 3.19 2.19 c1.69 0 4.58 -2.19 4.58 -2.19 l3.29 2.89 c0 0 -1.59 2.69 -0.99 3.78 c0.59 1.1 2.63 5.03 0.99 6.97 c-2.68 3.17 -7.27 2.49 -8.47 2.39 c-1.19 -0.1 -2.59 2.69 -2.59 2.69 z " style="stroke:#211d1d;stroke-width:1.01;stroke-linecap:round;stroke-linejoin:round;"/><text class="f21" font-size="12.47" style="fill:#211d1d"><tspan x="108.08" y="194.09" textLength="17.46" dx="0,-1.25,0">183</tspan></text><path d="M288.84 112.37 c0 2.81 -3.88 5.1 -8.67 5.1 l-1.39 0 c-4.78 0 -8.67 -2.28 -8.67 -5.1 l0 -13.93 c0 -2.81 3.88 -5.09 8.67 -5.09 l1.39 0 c4.79 0 8.67 2.28 8.67 5.09 l0 13.93 z " style="fill:#ffffff;"/><path d="M288.84 112.37 c0 2.81 -3.88 5.1 -8.67 5.1 l-1.39 0 c-4.78 0 -8.67 -2.28 -8.67 -5.1 l0 -13.93 c0 -2.81 3.88 -5.09 8.67 -5.09 l1.39 0 c4.79 0 8.67 2.28 8.67 5.09 l0 13.93 z " style="stroke:#211d1d;stroke-width:0.66;"/><text class="f21" font-size="10.57" style="fill:#211d1d"><tspan x="271.34" y="108.46" textLength="15.37" dx="0,-0.61,0.13">130</tspan></text>
</svg>
